# xmcd
#
# Track frame offsets:
#  150
#  21312
#  45462
#  58401
#  74030
#  83312
#  94901
#  104717
#  125550
#  141326
#  159494
#  170242
#  185324
#  197766
#  207057
#  220153
#
# Disc length: 3115 seconds
#
# Revision: 0
# Processed by: cddbd v1.5.1PL2 Copyright (c) Steve Scherf et al.
# Submitted via: Collectorz.com_Music_Collector 6.9
#
DISCID=f30c2910
DTITLE=Various Artist - Soul Train [CD3]
DYEAR=1900
DGENRE=Soul
TTITLE0=George Williams - Unchain My Heart
TTITLE1=Rufus Thomas - Push And Pull
TTITLE2=The Whispers - Seems Like I Gotta Do Wrong
TTITLE3=Al Wilson - Show And Tell
TTITLE4=The Drifters - Saturday Night At The Movies
TTITLE5=Brook Benton - Kiddio
TTITLE6=Betty Everett - In His Kiss (Shoop Shoop Song)
TTITLE7=The Chosen 3 - never again
TTITLE8=Percy Sledge - Just Out Of Reach
TTITLE9=Clarence Carter - Easy
TTITLE10=Ike Turner - Tina Turner - You Got What You Wanted
TTITLE11=Dee Clark - Dock Of The Bay
TTITLE12=The Platters - Only You
TTITLE13=Al Jarreau - Grandma's Hands
TTITLE14=Mary Wells - What Love Has Joined Together
TTITLE15=Sly and The Family Stone - Watermelon Man
EXTD=
EXTT0=
EXTT1=
EXTT2=
EXTT3=
EXTT4=
EXTT5=
EXTT6=
EXTT7=
EXTT8=
EXTT9=
EXTT10=
EXTT11=
EXTT12=
EXTT13=
EXTT14=
EXTT15=
PLAYORDER=
